<svg xmlns="http://www.w3.org/2000/svg" xmlns:xlink="http://www.w3.org/1999/xlink" version="1.1" x="0px" y="0px" viewBox="0 0 100 125" style="enable-background:new 0 0 100 100;" xml:space="preserve"><path d="M19.9,36.2c-0.4-0.4-1-0.4-1.4,0l-8.7,8.7c-0.2,0.2-0.3,0.4-0.3,0.7s0.1,0.5,0.3,0.7l42.4,42.4c0.2,0.2,0.4,0.3,0.7,0.3  s0.5-0.1,0.7-0.3l8.7-8.7c0.4-0.4,0.4-1,0-1.4L19.9,36.2z M52.9,86.7l-2.4-2.4l2.3-2.3c0.4-0.4,0.4-1,0-1.4s-1-0.4-1.4,0L49,82.8  l-1.5-1.5l2.3-2.3c0.4-0.4,0.4-1,0-1.4s-1-0.4-1.4,0l-2.3,2.3l-1.5-1.5l2.3-2.3c0.4-0.4,0.4-1,0-1.4s-1-0.4-1.4,0l-2.3,2.3l-1.5-1.5  l2.3-2.3c0.4-0.4,0.4-1,0-1.4s-1-0.4-1.4,0l-2.3,2.3L39,72.7l2.3-2.3c0.4-0.4,0.4-1,0-1.4s-1-0.4-1.4,0l-2.3,2.3l-1.5-1.5l2.3-2.3  c0.4-0.4,0.4-1,0-1.4s-1-0.4-1.4,0l-2.3,2.3L33.2,67l2.3-2.3c0.4-0.4,0.4-1,0-1.4s-1-0.4-1.4,0l-2.3,2.3l-1.5-1.5l2.3-2.3  c0.4-0.4,0.4-1,0-1.4s-1-0.4-1.4,0l-2.3,2.3l-1.5-1.5l2.3-2.3c0.4-0.4,0.4-1,0-1.4s-1-0.4-1.4,0l-2.3,2.3l-1.5-1.5l2.3-2.3  c0.4-0.4,0.4-1,0-1.4s-1-0.4-1.4,0L23.2,57l-1.5-1.5l2.3-2.3c0.4-0.4,0.4-1,0-1.4s-1-0.4-1.4,0l-2.3,2.3l-1.5-1.5l2.3-2.3  c0.4-0.4,0.4-1,0-1.4s-1-0.4-1.4,0l-2.3,2.3L16,49.8l2.3-2.3c0.4-0.4,0.4-1,0-1.4s-1-0.4-1.4,0l-2.3,2.3l-2.7-2.7l7.3-7.3l41,41  L52.9,86.7z"/><path d="M72.5,28.9c-2.5-2.5-6.6-2.5-9.1,0L48.9,43.5L25.4,20l3.3-3.3c0.4-0.4,0.4-1,0-1.4s-1-0.4-1.4,0l-4,4c-0.4,0.4-0.4,1,0,1.4  l24.2,24.2l-0.7,0.7c-2.5,2.5-2.5,6.6,0,9.1l16.7,16.7c1.2,1.2,2.9,1.9,4.5,1.9c1.6,0,3.3-0.6,4.5-1.9l16.7-16.7  c2.5-2.5,2.5-6.6,0-9.1L72.5,28.9z M87.8,53.2L71.1,69.9c-1.7,1.7-4.5,1.7-6.2,0L48.2,53.2c-1.7-1.7-1.7-4.5,0-6.2l1.4-1.4  c0,0,0,0,0,0s0,0,0,0l15.3-15.3c0.9-0.9,2-1.3,3.1-1.3s2.3,0.4,3.1,1.3L87.8,47C89.5,48.7,89.5,51.5,87.8,53.2z"/><path d="M68,39.3c-2.9,0-5.6,1.1-7.7,3.2c-2,2-3.2,4.8-3.2,7.7c0,2.9,1.1,5.6,3.2,7.7c2,2,4.8,3.2,7.7,3.2s5.6-1.1,7.7-3.2  c2-2,3.2-4.8,3.2-7.7c0-2.9-1.1-5.6-3.2-7.7C73.6,40.4,70.9,39.3,68,39.3z M74.2,56.4C72.6,58,70.4,59,68,59s-4.6-0.9-6.3-2.6  s-2.6-3.9-2.6-6.3c0-2.4,0.9-4.6,2.6-6.3c1.7-1.7,3.9-2.6,6.3-2.6s4.6,0.9,6.3,2.6c1.7,1.7,2.6,3.9,2.6,6.3  C76.8,52.5,75.9,54.7,74.2,56.4z"/></svg>