<svg xmlns="http://www.w3.org/2000/svg" width="74.854" height="68.687" viewBox="0 0 74.854 68.687">
  <defs>
    <style>
      .cls-1, .cls-2 {
        fill: none;
        stroke: #000;
        stroke-miterlimit: 10;
      }

      .cls-1 {
        stroke-linecap: round;
      }
    </style>
  </defs>
  <g id="Group_657" data-name="Group 657" transform="translate(-293.408 -224.915)">
    <path id="Path_358" data-name="Path 358" class="cls-1" d="M331.532,248.817a2.262,2.262,0,0,0,2.179-2.894,9.943,9.943,0,0,0-19.024,0,2.261,2.261,0,0,0,2.179,2.894Z" transform="translate(12.51 8.231)"/>
    <circle id="Ellipse_24" data-name="Ellipse 24" class="cls-1" cx="3.774" cy="3.774" r="3.774" transform="translate(332.935 235.888)"/>
    <circle id="Ellipse_25" data-name="Ellipse 25" class="cls-1" cx="4.741" cy="4.741" r="4.741" transform="translate(293.908 282.068)"/>
    <circle id="Ellipse_26" data-name="Ellipse 26" class="cls-1" cx="6.293" cy="6.293" r="6.293" transform="translate(330.417 280.516)"/>
    <circle id="Ellipse_27" data-name="Ellipse 27" class="cls-1" cx="3.147" cy="3.147" r="3.147" transform="translate(295.502 246.758)"/>
    <line id="Line_58" data-name="Line 58" class="cls-1" y2="29.016" transform="translate(298.649 253.052)"/>
    <line id="Line_59" data-name="Line 59" class="cls-1" x2="27.026" transform="translate(303.39 286.809)"/>
    <line id="Line_60" data-name="Line 60" class="cls-1" y1="15.439" transform="translate(336.71 265.078)"/>
    <path id="Path_359" data-name="Path 359" class="cls-1" d="M343.61,243.006a16.713,16.713,0,1,1-8.365-11.679" transform="translate(9.998 2.403)"/>
    <path id="Path_360" data-name="Path 360" class="cls-2" d="M346.776,225.269l-12.749,12.749-5.183-5.183" transform="translate(21.132 0)"/>
    <path id="Path_361" data-name="Path 361" class="cls-2" d="M343.628,230.028a9.732,9.732,0,1,1-3.024-2.914" transform="translate(19.275 0.249)"/>
  </g>
</svg>
