<svg xmlns:dc="http://purl.org/dc/elements/1.1/" xmlns:cc="http://creativecommons.org/ns#" xmlns:rdf="http://www.w3.org/1999/02/22-rdf-syntax-ns#" xmlns:svg="http://www.w3.org/2000/svg" xmlns="http://www.w3.org/2000/svg" xmlns:sodipodi="http://sodipodi.sourceforge.net/DTD/sodipodi-0.dtd" xmlns:inkscape="http://www.inkscape.org/namespaces/inkscape" version="1.1" x="0px" y="0px" viewBox="0 0 100 125"><g transform="translate(0,-952.36218)"><path style="text-indent:0;text-transform:none;direction:ltr;block-progression:tb;baseline-shift:baseline;color:#000000;enable-background:accumulate;" d="m 50,957.36217 c -0.5523,0 -1,0.4477 -1,1 l 0,8 c 0,0.5523 0.4477,1 1,1 0.5523,0 1,-0.4477 1,-1 l 0,-8 c 0,-0.5523 -0.4477,-1 -1,-1 z m -28.2812,11.71875 c -0.2561,0 -0.5235,0.086 -0.7188,0.28125 -0.3905,0.3905 -0.3905,1.047 0,1.4375 l 5.6562,5.65625 c 0.3905,0.3906 1.0471,0.3906 1.4376,0 0.3903,-0.3905 0.3903,-1.0469 0,-1.4375 l -5.6563,-5.65625 c -0.1952,-0.1953 -0.4629,-0.28125 -0.7187,-0.28125 z m 56.5624,0 c -0.2559,0 -0.5234,0.086 -0.7187,0.28125 l -5.6563,5.65625 c -0.3903,0.3906 -0.3903,1.047 0,1.4375 0.3905,0.3906 1.0471,0.3906 1.4376,0 L 79,970.79967 c 0.3905,-0.3905 0.3905,-1.047 0,-1.4375 -0.1953,-0.1953 -0.4627,-0.28125 -0.7188,-0.28125 z M 50,973.36217 c -12.7124,0 -25,9.87337 -25,23.84372 0,8.93151 3.4118,14.45841 6.6875,19.09381 3.2757,4.6354 6.3125,8.3408 6.3125,14.0625 l 0,12 c 0,2.8462 2.3519,5 5,5 l 14,0 c 2.6481,0 5,-2.1538 5,-5 l 0,-12 c 0,-5.7217 3.0368,-9.4271 6.3125,-14.0625 C 71.5882,1011.6643 75,1006.1374 75,997.20589 75,983.23554 62.7124,973.36217 50,973.36217 z m 0,2 c 11.678,0 23,9.04952 23,21.84372 0,8.43241 -3.0882,13.37481 -6.3125,17.93751 -3.0546,4.3226 -6.3206,8.3369 -6.6563,14.2188 l -20.0624,0 c -0.3357,-5.8819 -3.6017,-9.8962 -6.6563,-14.2188 C 30.0882,1010.5807 27,1005.6383 27,997.20589 c 0,-12.7942 11.322,-21.84372 23,-21.84372 z m -5.9062,6.0625 c -0.1395,0.009 -0.2952,0.0474 -0.4376,0.0937 -5.8541,2.20756 -10.2552,7.35432 -11.375,13.65622 -0.09,0.5236 0.289,1.0663 0.8126,1.1563 0.5235,0.09 1.0974,-0.2889 1.1874,-0.8125 0.9957,-5.6031 4.8624,-10.1642 10.0626,-12.12502 0.4984,-0.10812 0.8689,-0.65377 0.7812,-1.15625 -0.2323,-0.65801 -0.6129,-0.84012 -1.0312,-0.8125 z M 10,997.36219 c -0.5523,0 -1,0.4477 -1,1 0,0.5523 0.4477,1 1,1 l 8,0 c 0.5523,0 1,-0.4477 1,-1 0,-0.5523 -0.4477,-1 -1,-1 l -8,0 z m 72,0 c -0.5523,0 -1,0.4477 -1,1 0,0.5523 0.4477,1 1,1 l 8,0 c 0.5523,0 1,-0.4477 1,-1 0,-0.5523 -0.4477,-1 -1,-1 l -8,0 z m -42,34.00001 20,0 0,6 -20,0 0,-6 z m 0,8 20,0 0,3 c 0,1.75 -1.4271,3 -3,3 l -14,0 c -1.5729,0 -3,-1.25 -3,-3 l 0,-3 z" fill="#000000" fill-opacity="1" stroke="none" marker="none" visibility="visible" display="inline" overflow="visible"/></g></svg>