<svg xmlns="http://www.w3.org/2000/svg" xmlns:xlink="http://www.w3.org/1999/xlink" version="1.1" x="0px" y="0px" viewBox="0 0 100 125" style="enable-background:new 0 0 100 100;" xml:space="preserve"><path d="M10,85.4l10.2,6.8c0.4,0.3,0.9,0.4,1.4,0.4c0.8,0,1.6-0.4,2.1-1.1l21.1-31.7c0.8-1.1,0.4-2.7-0.7-3.4l-0.2-0.1  c-0.2-0.1-0.3-0.4-0.1-0.6l0.6-0.9c0.1-0.1,0.2-0.2,0.3-0.2c0.1,0,0.2,0,0.3,0.1l0.2,0.1c0.5,0.4,1.2,0.5,1.8,0.4  c0.6-0.1,1.2-0.5,1.6-1l0.9-1.3c0.4-0.5,0.5-1.2,0.4-1.8s-0.5-1.2-1-1.6L46,47.5l4.9-7.4l4.3,7.3l-3.1,1.8c-1.2,0.7-1.6,2.2-0.9,3.4  l0.8,1.4c0.3,0.6,0.9,1,1.5,1.1c0.6,0.2,1.3,0.1,1.9-0.3l0.2-0.1c0.1-0.1,0.3-0.1,0.3,0c0.1,0,0.2,0.1,0.3,0.2l0.6,1  c0.1,0.2,0.1,0.5-0.2,0.6l-0.2,0.1c-1.2,0.7-1.6,2.2-0.9,3.4L75,92.7c0.5,0.8,1.3,1.2,2.1,1.2c0.4,0,0.9-0.1,1.2-0.3l10.6-6.2  c0.6-0.3,1-0.9,1.1-1.5c0.2-0.6,0.1-1.3-0.3-1.9L70.4,51.2c-0.7-1.2-2.2-1.6-3.4-0.9l-0.2,0.1c-0.1,0.1-0.3,0.1-0.3,0  c-0.1,0-0.2-0.1-0.3-0.2l-0.6-1c-0.1-0.1-0.1-0.3,0-0.3c0-0.1,0.1-0.2,0.2-0.3l0.2-0.1c1.2-0.7,1.6-2.2,0.9-3.4l-0.8-1.4  c-0.3-0.6-0.9-1-1.5-1.1c-0.6-0.2-1.3-0.1-1.9,0.3l-3.1,1.8L54,35.1l10.8-16.2c0,0,0,0,0-0.1c1-0.2,1.9-0.7,2.4-1.6l3.2-4.8  c0.1-0.2,0.2-0.5,0.1-0.8c-0.1-0.3-0.2-0.5-0.4-0.6l-4.6-3c-0.2-0.1-0.5-0.2-0.8-0.1c-0.3,0.1-0.5,0.2-0.6,0.4L61,13.1  c-0.6,0.9-0.7,1.9-0.5,2.9c0,0,0,0,0,0L51,30.1L40.4,12c0,0-0.1-0.1-0.1-0.1l-3.4-4.1c-0.3-0.4-0.9-0.5-1.3-0.2l-1.2,0.7  c-0.4,0.2-0.6,0.8-0.4,1.2l1.9,5c0,0.1,0,0.1,0.1,0.1l12,20.4l-6.3,9.5l-3.2-2.1c-1.1-0.7-2.7-0.4-3.4,0.7l-0.9,1.3  c-0.4,0.5-0.5,1.2-0.4,1.8s0.5,1.2,1,1.6l0.2,0.1c0.2,0.1,0.3,0.4,0.1,0.6l-0.6,0.9c-0.1,0.1-0.2,0.2-0.3,0.2c-0.1,0-0.2,0-0.3-0.1  l-0.2-0.1c-0.5-0.4-1.2-0.5-1.8-0.4c-0.6,0.1-1.2,0.5-1.6,1L9.3,82C8.6,83.1,8.9,84.7,10,85.4z M63.8,44.7c0.1-0.1,0.3-0.1,0.3,0  c0.1,0,0.2,0.1,0.3,0.2l0.8,1.4c0.1,0.2,0.1,0.5-0.2,0.6l-0.2,0.1c-0.6,0.3-1,0.9-1.1,1.5s-0.1,1.3,0.3,1.9l0.6,1  c0.3,0.6,0.9,1,1.5,1.1c0.6,0.2,1.3,0.1,1.9-0.3l0.2-0.1c0.2-0.1,0.5-0.1,0.6,0.2L88.1,85c0.1,0.1,0.1,0.3,0,0.3  c0,0.1-0.1,0.2-0.2,0.3l-10.6,6.2c-0.2,0.1-0.5,0.1-0.6-0.2L57.4,58.9c-0.1-0.2-0.1-0.5,0.2-0.6l0.2-0.1c1.2-0.7,1.6-2.2,0.9-3.4  l-0.6-1c-0.3-0.6-0.9-1-1.5-1.1c-0.2-0.1-0.4-0.1-0.6-0.1c-0.4,0-0.9,0.1-1.2,0.3L54.5,53c-0.1,0.1-0.3,0.1-0.3,0  c-0.1,0-0.2-0.1-0.3-0.2L53,51.5c-0.1-0.2-0.1-0.5,0.2-0.6L63.8,44.7z M62.6,14.2l2.6-4l2.9,1.9l-2.6,4c-0.5,0.8-1.6,1-2.4,0.5  C62.3,16,62.1,15,62.6,14.2z M61.6,17.9c0.1,0.1,0.3,0.3,0.5,0.4c0,0,0,0,0,0c0.2,0.1,0.3,0.2,0.5,0.3l-9.7,14.6L52.2,32L61.6,17.9z   M36.4,10.4l2.3,2.8L58,45.8l-1,0.6L37.7,13.7L36.4,10.4z M49.1,37l0.7,1.1l-5.4,8.2l-1-0.7L49.1,37z M11,83.1l21.1-31.7  c0.1-0.1,0.2-0.2,0.3-0.2c0,0,0.1,0,0.1,0c0.1,0,0.2,0,0.3,0.1l0.2,0.1c0.5,0.4,1.2,0.5,1.8,0.4c0.6-0.1,1.2-0.5,1.6-1l0.6-0.9  c0.4-0.5,0.5-1.2,0.4-1.8c-0.1-0.6-0.5-1.2-1-1.6l-0.2-0.1c-0.1-0.1-0.2-0.2-0.2-0.3s0-0.2,0.1-0.3l0.9-1.3c0.1-0.2,0.4-0.3,0.6-0.1  l10.2,6.8c0.2,0.1,0.3,0.4,0.1,0.6l-0.9,1.3c-0.1,0.1-0.2,0.2-0.3,0.2c-0.1,0-0.2,0-0.3-0.1l-0.2-0.1c-0.5-0.4-1.2-0.5-1.8-0.4  c-0.6,0.1-1.2,0.5-1.6,1l-0.6,0.9c-0.8,1.1-0.4,2.7,0.7,3.4l0.2,0.1c0.2,0.1,0.3,0.4,0.1,0.6L22,90.4c-0.1,0.2-0.4,0.3-0.6,0.1  l-10.2-6.8C10.9,83.6,10.9,83.3,11,83.1z"/><path d="M20.6,85.2c0.2,0.1,0.4,0.2,0.6,0.2c0.3,0,0.6-0.2,0.8-0.4l15.8-23.8c0.3-0.5,0.2-1.1-0.3-1.4c-0.5-0.3-1.1-0.2-1.4,0.3  L20.3,83.8C20,84.3,20.1,84.9,20.6,85.2z"/><path d="M16.9,82.6c0.3,0,0.6-0.2,0.8-0.4l15.8-23.8c0.3-0.5,0.2-1.1-0.3-1.4c-0.5-0.3-1.1-0.2-1.4,0.3L16.1,81  c-0.3,0.5-0.2,1.1,0.3,1.4C16.6,82.5,16.7,82.6,16.9,82.6z"/><path d="M77.1,86.2c0.2,0.3,0.5,0.5,0.9,0.5c0.2,0,0.3,0,0.5-0.1c0.5-0.3,0.6-0.9,0.4-1.4L64.3,60.5c-0.3-0.5-0.9-0.6-1.4-0.4  c-0.5,0.3-0.6,0.9-0.4,1.4L77.1,86.2z"/><path d="M81.4,83.6c0.2,0.3,0.5,0.5,0.9,0.5c0.2,0,0.3,0,0.5-0.1c0.5-0.3,0.6-0.9,0.4-1.4L68.6,58c-0.3-0.5-0.9-0.6-1.4-0.4  c-0.5,0.3-0.6,0.9-0.4,1.4L81.4,83.6z"/></svg>