<svg xmlns="http://www.w3.org/2000/svg" width="55.52" height="78.625" viewBox="0 0 55.52 78.625">
  <defs>
    <style>
      .cls-1 {
        fill: none;
        stroke: #000;
        stroke-miterlimit: 10;
      }
    </style>
  </defs>
  <g id="Group_554" data-name="Group 554" transform="translate(-510.558 -258.392)">
    <path id="Path_320" data-name="Path 320" class="cls-1" d="M539.456,298.342c8.343-4.173,6.4-11.109,5.258-13.773a2.772,2.772,0,0,1,.05-2.276c4.4-9.394.648-14.489-2.918-17.025a2.011,2.011,0,0,0-3.14,2.006c1.6,7.784-2.1,12.419-4.251,14.378a4.322,4.322,0,0,1-2.916,1.1H515.417s-9.762,12.53,0,26.516H530.86l.1.111a12.342,12.342,0,0,0,9.328,4.259h1.939" transform="translate(0 6.618)"/>
    <path id="Path_321" data-name="Path 321" class="cls-1" d="M521.8,273.745s-9.761,12.53,0,26.516" transform="translate(6.495 15.625)"/>
    <path id="Path_322" data-name="Path 322" class="cls-1" d="M541.132,282.974h-6.553a3.292,3.292,0,0,1-3.291-3.291h0a3.29,3.29,0,0,1,3.291-3.291h4.34" transform="translate(20.566 18.318)"/>
    <rect id="Rectangle_85" data-name="Rectangle 85" class="cls-1" width="14.916" height="6.582" rx="3" transform="translate(550.662 301.291)"/>
    <rect id="Rectangle_86" data-name="Rectangle 86" class="cls-1" width="13.628" height="6.582" rx="3" transform="translate(548.776 307.873)"/>
    <rect id="Rectangle_87" data-name="Rectangle 87" class="cls-1" width="11.166" height="5.802" rx="2.901" transform="translate(547.478 314.455)"/>
    <path id="Path_323" data-name="Path 323" class="cls-1" d="M535.49,285.667a5.961,5.961,0,0,0,0-11.922h-1.66" transform="translate(23.153 15.625)"/>
    <line id="Line_47" data-name="Line 47" class="cls-1" x1="6.993" transform="translate(544.599 289.37)"/>
    <line id="Line_48" data-name="Line 48" class="cls-1" x1="6.598" transform="translate(523.955 274.141)"/>
    <line id="Line_49" data-name="Line 49" class="cls-1" x1="4.349" y1="4.349" transform="translate(529.73 262.623)"/>
    <line id="Line_50" data-name="Line 50" class="cls-1" y1="4.349" x2="4.349" transform="translate(549.956 262.623)"/>
    <line id="Line_51" data-name="Line 51" class="cls-1" y1="7.17" transform="translate(541.954 258.392)"/>
    <path id="Path_324" data-name="Path 324" class="cls-1" d="M542.859,289.194l3.757-12.491a6.456,6.456,0,0,0,3.079-11.694l-1.273,4.239a2.076,2.076,0,1,1-3.975-1.2l1.273-4.239a6.457,6.457,0,0,0-3.88,11.454l-13.068,43.457a6.157,6.157,0,1,0,4.776,1.435l1.983-6.6m-6.689,13.585a2.421,2.421,0,1,1,3.016-1.622A2.422,2.422,0,0,1,528.842,327.143Z" transform="translate(12.518 5.516)"/>
  </g>
</svg>
