<svg xmlns="http://www.w3.org/2000/svg" xmlns:xlink="http://www.w3.org/1999/xlink" version="1.1" x="0px" y="0px" viewBox="0 0 100 125" style="enable-background:new 0 0 100 100;" xml:space="preserve"><path d="M13.1,86C13.1,86,13.1,86,13.1,86c1.4,1.4,3.4,2.2,5.4,2.2c0.1,0,0.2,0,0.3,0c2.4-0.1,4.7-1.2,6.3-3.1l23.3-26.9l3-3  l2.6,2.6c1.2,1.2,2.7,1.8,4.4,1.8c1.7,0,3.2-0.6,4.4-1.8L87.6,33c0.2-0.2,0.3-0.4,0.3-0.7s-0.1-0.5-0.3-0.7L66.5,10.5  c-0.4-0.4-1-0.4-1.4,0L40.3,35.3c-1.2,1.2-1.8,2.7-1.8,4.4c0,1.7,0.6,3.2,1.8,4.4l2.6,2.6l-3,3L13,73.1c-1.9,1.6-3,3.9-3.1,6.3  c-0.1,2.2,0.7,4.2,2.2,5.7L13.1,86z M64.8,53L45.2,33.3l3.1-3.1l19.7,19.7L64.8,53z M63.7,42.8l16.1-16.1l2.1,2.1L65.8,44.9  L63.7,42.8z M62.3,41.4l-2.1-2.1l16.1-16.1l2.1,2.1L62.3,41.4z M58.8,37.9l-2.1-2.1l16.1-16.1l2.1,2.1L58.8,37.9z M55.3,34.4  l-2.1-2.1l16.1-16.1l2.1,2.1L55.3,34.4z M69.4,48.5l-2.2-2.2l16.1-16.1l2.2,2.2L69.4,48.5z M65.8,12.7l2.1,2.1L51.8,30.9l-2.1-2.1  L65.8,12.7z M40.5,39.7c0-1.1,0.4-2.2,1.2-3l2-2l19.7,19.7l-2,2c-0.8,0.8-1.8,1.2-3,1.2c-1.1,0-2.2-0.4-3-1.2L41.7,42.7  C40.9,41.9,40.5,40.8,40.5,39.7z M44.4,48.1l5.7,5.7l-2.4,2.4L42,50.5L44.4,48.1z M14.3,74.6l26.2-22.7l5.8,5.8L23.6,83.9  c-1.3,1.4-3,2.3-4.9,2.4c-1.6,0.1-3.1-0.5-4.2-1.6l-0.9-0.9c-1.1-1.1-1.7-2.6-1.6-4.2C12,77.6,12.9,75.8,14.3,74.6z"/><ellipse transform="matrix(0.7071 -0.7071 0.7071 0.7071 -50.5134 36.5713)" cx="18.9" cy="79.3" rx="1.7" ry="1.7"/><path d="M88,41c0-0.6-0.4-1-1-1s-1,0.4-1,1v17.4c0,0.6,0.4,1,1,1s1-0.4,1-1V41z"/><path d="M83.8,45.2c0-0.6-0.4-1-1-1s-1,0.4-1,1v17.4c0,0.6,0.4,1,1,1s1-0.4,1-1V45.2z"/><path d="M82.8,65.6c-0.6,0-1,0.4-1,1v4c0,0.6,0.4,1,1,1s1-0.4,1-1v-4C83.8,66,83.4,65.6,82.8,65.6z"/><path d="M87,61.6c-0.6,0-1,0.4-1,1v4c0,0.6,0.4,1,1,1s1-0.4,1-1v-4C88,62.1,87.6,61.6,87,61.6z"/><path d="M79.5,57v-8.5c0-0.6-0.4-1-1-1s-1,0.4-1,1V57c0,0.6,0.4,1,1,1S79.5,57.6,79.5,57z"/></svg>