<svg xmlns="http://www.w3.org/2000/svg" xmlns:xlink="http://www.w3.org/1999/xlink" version="1.1" x="0px" y="0px" viewBox="0 0 100 125" enable-background="new 0 0 100 100" xml:space="preserve"><path d="M26.676,62.385c-0.396,0.661-9.68,16.251-9.68,21.731c0,5.811,4.728,10.538,10.538,10.538s10.538-4.728,10.538-10.538  c0-5.48-9.284-21.07-9.68-21.731C28.031,61.781,27.037,61.781,26.676,62.385z M27.534,92.654c-4.708,0-8.538-3.83-8.538-8.538  c0-3.7,5.543-14.059,8.538-19.242c2.995,5.184,8.538,15.541,8.538,19.242C36.072,88.824,32.242,92.654,27.534,92.654z M82,38h-8  c-0.553,0-1,0.448-1,1v5H55.839C53.171,44,51,41.829,51,39.161V18h5c0.553,0,1-0.448,1-1V9c0-0.552-0.447-1-1-1H21  c-0.553,0-1,0.448-1,1v8c0,0.552,0.447,1,1,1h5v20.783C26,55.444,39.556,69,56.217,69H73v5c0,0.553,0.447,1,1,1h8  c0.553,0,1-0.447,1-1V39C83,38.448,82.553,38,82,38z M22,16v-6h33v6H22z M49,18v3H28v-3H49z M68,67H56.217  C40.658,67,28,54.342,28,38.783V23h21v16.161C49,42.932,52.068,46,55.839,46H68V67z M73,67h-3V46h3V67z M81,73h-6V40h6V73z"/></svg>