<svg width="68" height="90" viewBox="0 0 68 90" fill="none" xmlns="http://www.w3.org/2000/svg">
<path d="M20 0.499878C20 0.223736 19.7761 -0.00012207 19.5 -0.00012207C19.2239 -0.00012207 19 0.223736 19 0.499878V18C19 18.2761 19.2239 18.5 19.5 18.5C19.7761 18.5 20 18.2761 20 18V0.499878Z" fill="black"/>
<path fill-rule="evenodd" clip-rule="evenodd" d="M47.6 62.1C45.667 62.1 44.1 63.667 44.1 65.6C44.1 67.533 45.667 69.1 47.6 69.1C49.533 69.1 51.1 67.533 51.1 65.6C51.1 63.667 49.533 62.1 47.6 62.1ZM45.1 65.6C45.1 64.2193 46.2193 63.1 47.6 63.1C48.9807 63.1 50.1 64.2193 50.1 65.6C50.1 66.9807 48.9807 68.1 47.6 68.1C46.2193 68.1 45.1 66.9807 45.1 65.6Z" fill="black"/>
<path d="M15 50.0114L15 57.4886H16V50.0114H15Z" fill="black"/>
<path d="M15 61.7614V69.2386H16L16 61.7614H15Z" fill="black"/>
<path d="M15 73.5114L15 80.9886H16V73.5114L15 73.5114Z" fill="black"/>
<path fill-rule="evenodd" clip-rule="evenodd" d="M14.2655 38.2233L15.6449 40.2158H17.4228L15.8186 37.9168C16.2886 37.7124 16.6496 37.4195 16.9017 37.0381C17.1605 36.6498 17.2899 36.19 17.2899 35.6587C17.2899 35.1273 17.1639 34.6675 16.9119 34.2793C16.6598 33.891 16.2988 33.5913 15.8288 33.3801C15.3656 33.1689 14.8172 33.0633 14.1837 33.0633H11.0877V40.2158H12.743V38.2233H14.2655ZM15.2259 34.7391C15.4848 34.9502 15.6142 35.2568 15.6142 35.6587C15.6142 36.0537 15.4848 36.3603 15.2259 36.5783C14.9671 36.7962 14.589 36.9052 14.0918 36.9052H12.743V34.4121H14.0918C14.589 34.4121 14.9671 34.5211 15.2259 34.7391Z" fill="black"/>
<path fill-rule="evenodd" clip-rule="evenodd" d="M29.8 23.4C29.8 26.3279 31.1547 28.9391 33.2627 30.6052L23.5471 38.1685C23.6476 37.5942 23.7 37.0032 23.7 36.4C23.7 30.8269 19.2278 26.3 13.7 26.3C8.17223 26.3 3.7 30.8269 3.7 36.4C3.7 38.4303 4.29356 40.3218 5.31548 41.9062C2.36083 42.0449 0 44.5119 0 47.5V83.7C0 86.7761 2.52386 89.3 5.6 89.3H57.3C60.3694 89.3 62.9051 86.7807 62.8 83.6914V72.2957C65.2833 72.1894 67.4 70.1138 67.4 67.5V63.7C67.4 61.0909 65.3812 59.0067 62.8 58.904V47.5C62.8 45.2329 61.4292 43.2659 59.4768 42.3879L64.9708 38.1109L49.3676 18.0678L46.9406 19.9571C45.6144 16.6425 42.4303 14.3 38.7 14.3C33.7736 14.3 29.8 18.3854 29.8 23.4ZM38.7 15.3C34.348 15.3 30.8 18.9153 30.8 23.4C30.8 26.1089 32.0945 28.5005 34.0787 29.9699L39.6318 25.6469L38.9448 24.6547H37.5867V26.4321H36.11V20.0516H38.8719C39.437 20.0516 39.9262 20.1458 40.3394 20.3342C40.7587 20.5225 41.0808 20.7899 41.3056 21.1363C41.5304 21.4827 41.6428 21.8928 41.6428 22.3668C41.6428 22.8408 41.5274 23.251 41.2965 23.5973C41.0716 23.9376 40.7496 24.1989 40.3303 24.3812L40.6567 24.849L46.1155 20.5995C45.0024 17.5014 42.096 15.3 38.7 15.3ZM66.4 67.5C66.4 69.5466 64.7461 71.1885 62.8 71.2946V59.905C64.8281 60.0064 66.4 61.6433 66.4 63.7V67.5ZM61.8 71.3V59.9H45.1C42.9761 59.9 41.3 61.5761 41.3 63.7V67.5C41.3 69.6239 42.9761 71.3 45.1 71.3H61.8ZM45.1 58.9H61.8V47.5C61.8 45.4467 60.4258 43.6897 58.5544 43.1059L57.2 42.9H16V45.7386H15V42.9H5.6C3.07614 42.9 1 44.9761 1 47.5V83.7C1 86.2239 3.07614 88.3 5.6 88.3H15V85.2614L16 85.2614V88.3H57.3C59.8275 88.3 61.8898 86.2243 61.8003 83.7178L61.8 83.7089V72.3H45.1C42.4239 72.3 40.3 70.1761 40.3 67.5V63.7C40.3 61.0239 42.4239 58.9 45.1 58.9ZM58.3334 42.0164L63.5674 37.9361L49.1928 19.4712L47.2769 20.9627C47.4875 21.7388 47.6 22.5562 47.6 23.4C47.6 24.1823 47.5033 24.9419 47.3214 25.667C48.5434 25.9367 49.8421 25.79 50.986 25.2481L51.3496 25.0759L58.6471 34.5197L58.3763 34.8292C57.1 36.2878 56.7288 38.3974 57.3719 40.2348L57.4907 40.574L55.7858 41.9H57.2C57.5879 41.9 57.967 41.9401 58.3334 42.0164ZM54.157 41.9L56.3179 40.2193C55.7575 38.2727 56.1265 36.1127 57.3616 34.4916L51.0427 26.3142C49.7707 26.8247 48.3592 26.9375 47.0245 26.6252C45.7527 30.0545 42.5115 32.5 38.7 32.5C38.11 32.5 37.5337 32.4414 36.9763 32.3296L24.6716 41.9H30.5713C30.5828 41.8222 30.5956 41.7444 30.6096 41.6665C31.3419 37.5894 35.2407 34.8779 39.3178 35.6103C42.5734 36.195 44.9582 38.7987 45.4143 41.9H54.157ZM44.4015 41.9C43.9542 39.2767 41.9114 37.0922 39.141 36.5946C35.6075 35.9599 32.2286 38.3098 31.5939 41.8433C31.5906 41.8614 31.5875 41.8803 31.5843 41.9H34.5394L34.3838 41.6926L36.3836 40.1358C36.7929 39.8172 37.2002 39.6097 37.6056 39.5131C38.0154 39.4132 38.3993 39.4252 38.7574 39.5493C39.1154 39.6734 39.428 39.907 39.6952 40.2502C39.9624 40.5934 40.11 40.9555 40.1381 41.3365C40.1527 41.525 40.1381 41.7128 40.0941 41.9H44.4015ZM20.3818 41.9H20.8709C21.0632 41.6441 21.2424 41.3776 21.4075 41.1015L20.3818 41.9ZM22.0885 41.9H23.0427L35.7747 31.9974C35.1933 31.7907 34.6395 31.524 34.1203 31.2048L23.134 39.7574C22.8689 40.5173 22.5164 41.2356 22.0885 41.9ZM36.2624 41.9H38.8204L38.8244 41.8822C38.882 41.6112 38.8115 41.3481 38.6128 41.0929C38.4107 40.8333 38.1729 40.7004 37.8995 40.6941C37.6227 40.6835 37.3237 40.8032 37.0025 41.0532L36.1312 41.7315L36.2624 41.9ZM18.7539 41.9H6.52911C5.38152 40.3729 4.7 38.4677 4.7 36.4C4.7 31.3693 8.73436 27.3 13.7 27.3C18.6656 27.3 22.7 31.3693 22.7 36.4C22.7 37.3605 22.5529 38.2859 22.2804 39.1546L18.7539 41.9ZM46.3667 25.3629C46.5191 24.7347 46.6 24.0773 46.6 23.4C46.6 22.7938 46.5352 22.2034 46.4123 21.6357L41.2297 25.6703L41.7613 26.4321H40.2511L34.9713 30.5423C35.5244 30.8465 36.1167 31.085 36.7382 31.248L45.1775 24.6841L45.4773 24.884C45.7613 25.0733 46.0592 25.2328 46.3667 25.3629ZM38.0751 31.475L45.2311 25.9092C45.5028 26.0688 45.7834 26.2065 46.0704 26.3227C44.9256 29.3563 42.0512 31.5 38.7 31.5C38.4897 31.5 38.2813 31.4916 38.0751 31.475ZM39.8016 21.5465C40.0325 21.7348 40.148 22.0083 40.148 22.3668C40.148 22.7193 40.0325 22.9927 39.8016 23.1872C39.5707 23.3816 39.2334 23.4788 38.7899 23.4788H37.5867V21.2548H38.7899C39.2334 21.2548 39.5707 21.352 39.8016 21.5465Z" fill="black"/>
<path d="M26.1 7.7C26.3761 7.7 26.6 7.92386 26.6 8.2V13.9C26.6 14.1761 26.3761 14.4 26.1 14.4C25.8239 14.4 25.6 14.1761 25.6 13.9V8.2C25.6 7.92386 25.8239 7.7 26.1 7.7Z" fill="black"/>
<path d="M41.3 3.6C41.3 3.32386 41.0761 3.1 40.8 3.1C40.5239 3.1 40.3 3.32386 40.3 3.6V9.3C40.3 9.57615 40.5239 9.8 40.8 9.8C41.0761 9.8 41.3 9.57615 41.3 9.3V3.6Z" fill="black"/>
<path d="M26.1 17.6C26.3761 17.6 26.6 17.8239 26.6 18.1V28.6634L26.9621 28.3314C27.1657 28.1448 27.482 28.1586 27.6686 28.3621C27.8552 28.5657 27.8414 28.882 27.6379 29.0686L26.1132 30.4662L24.477 29.0817C24.2662 28.9033 24.2399 28.5878 24.4183 28.377C24.5967 28.1662 24.9122 28.1399 25.123 28.3183L25.6 28.7219V18.1C25.6 17.8239 25.8239 17.6 26.1 17.6Z" fill="black"/>
<path d="M12.7 12.3C12.9761 12.3 13.2 12.5239 13.2 12.8V19.5026L13.5754 19.1585C13.7789 18.9719 14.0952 18.9857 14.2818 19.1892C14.4684 19.3928 14.4546 19.7091 14.2511 19.8957L12.7 21.293L11.0903 19.9088C10.8794 19.7304 10.8532 19.4149 11.0315 19.2041C11.2099 18.9933 11.5254 18.967 11.7362 19.1454L12.2 19.5379V12.8C12.2 12.5239 12.4239 12.3 12.7 12.3Z" fill="black"/>
<path d="M57.3 9.8C57.3 9.52386 57.0761 9.3 56.8 9.3C56.5239 9.3 56.3 9.52386 56.3 9.8V20.5465L55.8097 20.1402C55.5989 19.9618 55.2835 19.9881 55.1051 20.1989C54.9267 20.4097 54.953 20.7252 55.1638 20.9036L56.8 22.288L58.3246 20.8905C58.5282 20.7039 58.542 20.3876 58.3554 20.184C58.1688 19.9805 57.8525 19.9667 57.6489 20.1533L57.3 20.4853V9.8Z" fill="black"/>
</svg>
