<svg width="58" height="49" viewBox="0 0 58 49" fill="none" xmlns="http://www.w3.org/2000/svg">
<path fill-rule="evenodd" clip-rule="evenodd" d="M28.537 8.39001C22.1222 8.39001 16.922 13.5902 16.922 20.005C16.922 26.4198 22.1222 31.62 28.537 31.62C34.9518 31.62 40.152 26.4198 40.152 20.005C40.152 13.5902 34.9518 8.39001 28.537 8.39001ZM15.922 20.005C15.922 13.0379 21.5699 7.39001 28.537 7.39001C35.5041 7.39001 41.152 13.0379 41.152 20.005C41.152 26.9721 35.5041 32.62 28.537 32.62C21.5699 32.62 15.922 26.9721 15.922 20.005Z" fill="black"/>
<path fill-rule="evenodd" clip-rule="evenodd" d="M22.434 21.88H34.64C34.8726 21.8804 35.1019 21.9411 35.304 22.056C35.5061 22.171 35.675 22.3363 35.7942 22.536C35.9134 22.7356 35.9789 22.9627 35.9842 23.1952C35.9895 23.4272 35.9347 23.6566 35.8253 23.8611C35.1245 25.186 34.0757 26.2949 32.7918 27.0685C31.5075 27.8422 30.0364 28.2511 28.537 28.2511C27.0376 28.2511 25.5665 27.8422 24.2822 27.0685C22.9982 26.2949 21.9494 25.186 21.2486 23.8609C21.1392 23.6564 21.0845 23.4271 21.0898 23.1952C21.0951 22.9627 21.1606 22.7356 21.2798 22.536C21.399 22.3363 21.5679 22.171 21.77 22.056C21.9721 21.9411 22.2015 21.8804 22.434 21.88ZM22.4345 22.88C22.3749 22.8802 22.3163 22.8958 22.2644 22.9253C22.2124 22.9548 22.169 22.9973 22.1384 23.0486C22.1077 23.1 22.0909 23.1583 22.0896 23.2181C22.0882 23.2779 22.1023 23.3369 22.1306 23.3896L22.132 23.3923C22.7478 24.5571 23.6696 25.532 24.7982 26.2119C25.9268 26.8918 27.2194 27.2511 28.537 27.2511C29.8546 27.2511 31.1472 26.8918 32.2758 26.2119C33.4044 25.532 34.3262 24.5571 34.942 23.3923L34.9434 23.3896C34.9717 23.3369 34.9858 23.2778 34.9845 23.2181C34.9831 23.1583 34.9663 23.1 34.9356 23.0486C34.905 22.9973 34.8616 22.9548 34.8096 22.9253C34.7577 22.8958 34.6991 22.8802 34.6395 22.88H22.4345Z" fill="black"/>
<path d="M26.0001 16.5004C26.0001 17.3288 25.3285 18.0004 24.5001 18.0004C23.6717 18.0004 23.0001 17.3288 23.0001 16.5004C23.0001 15.6719 23.6717 15.0004 24.5001 15.0004C25.3285 15.0004 26.0001 15.6719 26.0001 16.5004Z" fill="black"/>
<path d="M34.0001 16.5004C34.0001 17.3288 33.3285 18.0004 32.5001 18.0004C31.6717 18.0004 31.0001 17.3288 31.0001 16.5004C31.0001 15.6719 31.6717 15.0004 32.5001 15.0004C33.3285 15.0004 34.0001 15.6719 34.0001 16.5004Z" fill="black"/>
<path fill-rule="evenodd" clip-rule="evenodd" d="M1.55233 1.55233C2.54627 0.558388 3.89434 0 5.29999 0H52.157C53.5617 0.00204837 54.9088 0.561634 55.9012 1.55584C56.8935 2.54999 57.4505 3.89739 57.45 5.302V5.302V35.128C57.45 36.5336 56.8916 37.8817 55.8977 38.8756C54.9037 39.8696 53.5556 40.428 52.15 40.428H16.2571L7.75 48.9351V40.428H5.29999C3.89434 40.428 2.54627 39.8696 1.55233 38.8756C0.558388 37.8817 0 36.5336 0 35.128V5.29999C0 3.89434 0.558388 2.54627 1.55233 1.55233ZM52.1566 1H5.29999C4.15956 1 3.06584 1.45303 2.25944 2.25944C1.45303 3.06584 1 4.15956 1 5.29999V35.128C1 36.2684 1.45303 37.3621 2.25944 38.1685C3.06584 38.9749 4.15956 39.428 5.29999 39.428H8.75V46.5209L15.8429 39.428H52.15C53.2904 39.428 54.3841 38.9749 55.1905 38.1685C55.997 37.3621 56.45 36.2684 56.45 35.128V5.302C56.4505 4.16234 55.9985 3.06889 55.1934 2.26228C54.3884 1.45575 53.2961 1.00176 52.1566 1Z" fill="black"/>
</svg>
